<svg width="1920" height="147" viewBox="0 0 1920 147" fill="none" xmlns="http://www.w3.org/2000/svg">
<path d="M-253 0L-197.506 8.87551C-142.012 17.4736 -31.0244 35.2246 79.4471 36.6114C190.177 37.9981 300.132 23.0208 410.862 16.6415C521.333 10.2623 632.321 11.9264 742.793 22.7434C853.522 33.2831 963.478 52.6981 1074.21 47.983C1184.68 43.5452 1295.67 14.7 1406.14 6.93396C1516.87 -0.832075 1626.82 11.9264 1737.55 22.1887C1848.02 32.4509 1959.01 39.6623 2014.51 43.5453L2070 47.1509V147H2014.51C1959.01 147 1848.02 147 1737.55 147C1626.82 147 1516.87 147 1406.14 147C1295.67 147 1184.68 147 1074.21 147C963.478 147 853.522 147 742.793 147C632.321 147 521.333 147 410.862 147C300.132 147 190.177 147 79.4471 147C-31.0244 147 -142.012 147 -197.506 147H-253V0Z" fill="#3F673F"/>
</svg>
