<svg width="1920" height="148" viewBox="0 0 1920 148" fill="none" xmlns="http://www.w3.org/2000/svg">
<path d="M2070 148L2014.51 139.064C1959.01 130.408 1848.02 112.536 1737.55 111.14C1626.82 109.743 1516.87 124.823 1406.14 131.245C1295.67 137.668 1184.68 135.992 1074.21 125.102C963.478 114.491 853.522 94.9434 742.793 99.6906C632.321 104.159 521.333 133.2 410.862 141.019C300.132 148.838 190.177 135.992 79.447 125.66C-31.0245 115.328 -142.012 108.068 -197.506 104.158L-253 100.528V9.53674e-07H-197.506C-142.012 9.53674e-07 -31.0245 9.53674e-07 79.447 9.53674e-07C190.177 9.53674e-07 300.132 9.53674e-07 410.862 9.53674e-07C521.333 9.53674e-07 632.321 9.53674e-07 742.793 9.53674e-07C853.522 9.53674e-07 963.478 9.53674e-07 1074.21 9.53674e-07C1184.68 9.53674e-07 1295.67 9.53674e-07 1406.14 9.53674e-07C1516.87 9.53674e-07 1626.82 9.53674e-07 1737.55 9.53674e-07C1848.02 9.53674e-07 1959.01 9.53674e-07 2014.51 9.53674e-07H2070V148Z" fill="#3F673F"/>
</svg>
