<svg width="1920" height="644" viewBox="0 0 1920 644" fill="none" xmlns="http://www.w3.org/2000/svg">
<path d="M-253 97.1552L-197.506 96.3224C-142.012 95.2121 -31.0244 93.5465 79.4471 77.1689C190.177 61.0689 300.132 30.5344 410.862 43.8586C521.333 57.4603 632.321 114.643 742.793 124.081C853.522 133.241 963.478 94.3793 1074.21 69.9518C1184.68 45.2466 1295.67 35.2534 1406.14 56.9052C1516.87 78.5569 1626.82 132.409 1737.55 128.245C1848.02 124.081 1959.01 61.9018 2014.51 31.0897L2070 0V644H2014.51C1959.01 644 1848.02 644 1737.55 644C1626.82 644 1516.87 644 1406.14 644C1295.67 644 1184.68 644 1074.21 644C963.478 644 853.522 644 742.793 644C632.321 644 521.333 644 410.862 644C300.132 644 190.177 644 79.4471 644C-31.0244 644 -142.012 644 -197.506 644H-253V97.1552Z" fill="#008B8B"/>
</svg>
