<svg width="1920" height="557" viewBox="0 0 1920 557" fill="none" xmlns="http://www.w3.org/2000/svg">
<path d="M-253 0L-197.506 4.98803C-142.012 10.2532 -31.0244 20.2294 79.4471 47.1095C190.177 73.9896 300.132 117.219 410.862 117.219C521.333 117.219 632.321 73.9896 742.793 47.6637C853.522 21.3378 963.478 11.916 1074.21 28.2657C1184.68 44.3383 1295.67 85.9055 1406.14 83.1343C1516.87 80.3632 1626.82 33.2537 1737.55 34.6393C1848.02 36.0249 1959.01 85.9055 2014.51 110.846L2070 135.786V557H2014.51C1959.01 557 1848.02 557 1737.55 557C1626.82 557 1516.87 557 1406.14 557C1295.67 557 1184.68 557 1074.21 557C963.478 557 853.522 557 742.793 557C632.321 557 521.333 557 410.862 557C300.132 557 190.177 557 79.4471 557C-31.0244 557 -142.012 557 -197.506 557H-253V0Z" fill="#198376"/>
</svg>
