<svg width="1920" height="235" viewBox="0 0 1920 235" fill="none" xmlns="http://www.w3.org/2000/svg">
<path d="M-253 49.3405L-197.506 45.7382C-142.012 41.8588 -31.0244 34.654 79.4471 23.847C190.177 13.317 300.132 -0.538092 410.862 0.0161152C521.333 0.293219 632.321 15.2568 742.793 19.6904C853.522 24.4012 963.478 18.8592 1074.21 24.9554C1184.68 30.7746 1295.67 48.5092 1406.14 54.8826C1516.87 61.256 1626.82 56.8223 1737.55 46.5695C1848.02 36.3167 1959.01 20.7988 2014.51 12.7628L2070 5.00395V235H2014.51C1959.01 235 1848.02 235 1737.55 235C1626.82 235 1516.87 235 1406.14 235C1295.67 235 1184.68 235 1074.21 235C963.478 235 853.522 235 742.793 235C632.321 235 521.333 235 410.862 235C300.132 235 190.177 235 79.4471 235C-31.0244 235 -142.012 235 -197.506 235H-253V49.3405Z" fill="#367150"/>
</svg>
