<svg width="1920" height="447" viewBox="0 0 1920 447" fill="none" xmlns="http://www.w3.org/2000/svg">
<path d="M-253 36.0932L-197.506 60.2479C-142.012 84.1249 -31.0244 132.434 79.4471 136.043C190.177 139.653 300.132 99.1174 410.862 92.454C521.333 86.0683 632.321 113.832 742.793 108.835C853.522 103.56 963.478 65.8006 1074.21 54.1398C1184.68 42.4789 1295.67 57.4715 1406.14 82.459C1516.87 107.447 1626.82 142.429 1737.55 130.491C1848.02 118.552 1959.01 59.1373 2014.51 29.7075L2070 0V447H2014.51C1959.01 447 1848.02 447 1737.55 447C1626.82 447 1516.87 447 1406.14 447C1295.67 447 1184.68 447 1074.21 447C963.478 447 853.522 447 742.793 447C632.321 447 521.333 447 410.862 447C300.132 447 190.177 447 79.4471 447C-31.0244 447 -142.012 447 -197.506 447H-253V36.0932Z" fill="#2A7A62"/>
</svg>
