<svg width="77" height="88" viewBox="0 0 77 88" fill="none" xmlns="http://www.w3.org/2000/svg">
<g id="&#240;&#159;&#166;&#134; icon &#34;Database&#34;">
<path id="Vector" d="M76.6429 12.664V20.4847C76.6429 27.3767 59.4781 32.9978 38.3215 32.9978C17.1648 32.9978 0 27.3767 0 20.4847V12.664C0 5.77199 17.1648 0.150879 38.3215 0.150879C59.4781 0.150879 76.6429 5.77199 76.6429 12.664ZM76.6429 30.2606V47.8572C76.6429 54.7492 59.4781 60.3703 38.3215 60.3703C17.1648 60.3703 0 54.7492 0 47.8572V30.2606C8.23312 35.9306 23.3022 38.5702 38.3215 38.5702C53.3407 38.5702 68.4096 35.9306 76.6429 30.2606ZM76.6429 57.6331V75.2296C76.6429 82.1217 59.4781 87.7428 38.3215 87.7428C17.1648 87.7428 0 82.1217 0 75.2296V57.6331C8.23312 63.3031 23.3022 65.9427 38.3215 65.9427C53.3407 65.9427 68.4096 63.3031 76.6429 57.6331Z" fill="white"/>
</g>
</svg>
