<svg width="59" height="88" viewBox="0 0 59 88" fill="none" xmlns="http://www.w3.org/2000/svg">
<g id="&#240;&#159;&#166;&#134; icon &#34;Figma&#34;">
<path id="Vector" d="M43.8131 29.203C47.6856 29.203 51.3996 27.6646 54.1379 24.9263C56.8762 22.188 58.4146 18.4741 58.4146 14.6015C58.4146 10.7289 56.8762 7.01499 54.1379 4.27668C51.3996 1.53837 47.6856 0 43.8131 0L14.6101 0C10.7398 0 7.028 1.53747 4.29129 4.27418C1.55458 7.01088 0.0171118 10.7227 0.0171118 14.5929C0.0171118 18.4632 1.55458 22.175 4.29129 24.9117C7.028 27.6484 10.7398 29.1859 14.6101 29.1859C10.7375 29.1859 7.02355 30.7243 4.28524 33.4626C1.54693 36.2009 0.008558 39.9148 0.008558 43.7874C0.008558 47.66 1.54693 51.3739 4.28524 54.1122C7.02355 56.8505 10.7375 58.3889 14.6101 58.3889C11.7222 58.3872 8.8986 59.2419 6.49646 60.8449C4.09432 62.448 2.22147 64.7273 1.11475 67.3947C0.00803943 70.0622 -0.282839 72.9979 0.278904 75.8306C0.840647 78.6634 2.22978 81.2659 4.27064 83.3092C6.3115 85.3524 8.91242 86.7446 11.7445 87.3097C14.5766 87.8747 17.5126 87.5873 20.1814 86.4837C22.8501 85.3801 25.1316 83.5099 26.7375 81.1097C28.3433 78.7094 29.2013 75.8869 29.203 72.999V29.203H43.8131ZM43.8131 29.203C40.9268 29.203 38.1054 30.0589 35.7057 31.6624C33.3059 33.2659 31.4354 35.545 30.3309 38.2115C29.2264 40.878 28.9374 43.8121 29.5005 46.6429C30.0636 49.4736 31.4534 52.0739 33.4943 54.1147C35.5351 56.1556 38.1354 57.5454 40.9661 58.1085C43.7969 58.6716 46.731 58.3826 49.3975 57.2781C52.0641 56.1736 54.3432 54.3032 55.9467 51.9034C57.5501 49.5036 58.406 46.6822 58.406 43.7959C58.4056 39.9258 56.8679 36.2143 54.1313 33.4777C51.3947 30.7411 47.6832 29.2035 43.8131 29.203Z" fill="white"/>
</g>
</svg>
