<svg width="88" height="88" viewBox="0 0 88 88" fill="none" xmlns="http://www.w3.org/2000/svg">
<path id="Vector" d="M57.7781 45.8427C57.9028 46.4625 57.964 47.2069 57.964 47.8274V52.3535C57.964 53.1599 57.9028 53.9037 57.7161 54.5859C56.9725 57.8727 54.2441 59.9803 51.1435 59.9803C46.3076 59.9803 43.5788 55.9501 43.5788 50.4315C43.5788 44.7886 46.3076 40.4484 51.2054 40.4484C54.6779 40.4484 57.0962 42.8667 57.7781 45.8427ZM87.5314 14.5886V72.9428C87.5314 80.9666 80.9666 87.5314 72.9428 87.5314H14.5886C6.56486 87.5313 0 80.9664 0 72.9427V14.5886C0 6.56485 6.56486 0 14.5886 0H72.943C80.9666 0 87.5314 6.56485 87.5314 14.5886ZM29.3189 23.6447H21.6924V65.4369H29.3189V23.6447ZM65.8394 65.4369C65.7147 63.3905 65.5909 60.0425 65.5909 56.9424V21.4123H57.964V38.5261H57.84C56.4766 36.294 53.4997 34.5577 49.3455 34.5577C42.0906 34.5577 35.7659 40.5724 35.8278 50.6796C35.8278 59.9805 41.5324 66.1187 48.7249 66.1187C53.127 66.1187 56.7856 64.0109 58.5842 60.6623H58.7082L59.0181 65.4369H65.8394Z" fill="white"/>
</svg>
