<svg id="visual" viewBox="0 0 1920 1080" width="1920" height="1080" xmlns="http://www.w3.org/2000/svg" xmlns:xlink="http://www.w3.org/1999/xlink" version="1.1"><g stroke-width="1" stroke-linejoin="bevel"><path d="M890.3 544L675 691L871.3 728Z" fill="#001b35" stroke="#001b35"></path><path d="M890.3 544L647 561L675 691Z" fill="#17459f" stroke="#17459f"></path><path d="M890.3 544L664 376L647 561Z" fill="#003d8a" stroke="#003d8a"></path><path d="M890.3 544L863.3 354L664 376Z" fill="#001122" stroke="#001122"></path><path d="M871.3 728L1075.7 551L890.3 544Z" fill="#5958de" stroke="#5958de"></path><path d="M890.3 544L1053.7 321L863.3 354Z" fill="#4252ca" stroke="#4252ca"></path><path d="M675 691L845.3 926L871.3 728Z" fill="#2d4cb5" stroke="#2d4cb5"></path><path d="M871.3 728L1105.7 706L1075.7 551Z" fill="#5958de" stroke="#5958de"></path><path d="M427.7 743L648 915L675 691Z" fill="#00244a" stroke="#00244a"></path><path d="M675 691L648 915L845.3 926Z" fill="#001122" stroke="#001122"></path><path d="M1035.7 932L1105.7 706L871.3 728Z" fill="#715df2" stroke="#715df2"></path><path d="M390.7 537L427.7 743L647 561Z" fill="#5958de" stroke="#5958de"></path><path d="M647 561L427.7 743L675 691Z" fill="#00244a" stroke="#00244a"></path><path d="M845.3 926L1035.7 932L871.3 728Z" fill="#003574" stroke="#003574"></path><path d="M1281 395L1053.7 321L1075.7 551Z" fill="#002d5f" stroke="#002d5f"></path><path d="M1075.7 551L1053.7 321L890.3 544Z" fill="#003574" stroke="#003574"></path><path d="M444.7 206L436.7 357L664 376Z" fill="#715df2" stroke="#715df2"></path><path d="M436.7 357L390.7 537L647 561Z" fill="#003574" stroke="#003574"></path><path d="M664 376L436.7 357L647 561Z" fill="#001b35" stroke="#001b35"></path><path d="M872.3 165L664 376L863.3 354Z" fill="#17459f" stroke="#17459f"></path><path d="M611 1080L876.3 1080L845.3 926Z" fill="#17459f" stroke="#17459f"></path><path d="M845.3 926L876.3 1080L1035.7 932Z" fill="#003d8a" stroke="#003d8a"></path><path d="M427.7 743L442.7 933L648 915Z" fill="#2d4cb5" stroke="#2d4cb5"></path><path d="M648 915L611 1080L845.3 926Z" fill="#4252ca" stroke="#4252ca"></path><path d="M199.3 890L442.7 933L427.7 743Z" fill="#715df2" stroke="#715df2"></path><path d="M1053.7 321L872.3 165L863.3 354Z" fill="#2d4cb5" stroke="#2d4cb5"></path><path d="M1294 752L1261 559L1105.7 706Z" fill="#001122" stroke="#001122"></path><path d="M1105.7 706L1261 559L1075.7 551Z" fill="#001122" stroke="#001122"></path><path d="M442.7 933L611 1080L648 915Z" fill="#4252ca" stroke="#4252ca"></path><path d="M872.3 165L637 149L664 376Z" fill="#17459f" stroke="#17459f"></path><path d="M1252 902L1294 752L1105.7 706Z" fill="#17459f" stroke="#17459f"></path><path d="M1252 902L1105.7 706L1035.7 932Z" fill="#001122" stroke="#001122"></path><path d="M1093.7 1080L1252 902L1035.7 932Z" fill="#003d8a" stroke="#003d8a"></path><path d="M637 149L444.7 206L664 376Z" fill="#001122" stroke="#001122"></path><path d="M226.3 530L233.3 689L390.7 537Z" fill="#003d8a" stroke="#003d8a"></path><path d="M1262 215L1052.7 151L1053.7 321Z" fill="#17459f" stroke="#17459f"></path><path d="M1053.7 321L1052.7 151L872.3 165Z" fill="#00244a" stroke="#00244a"></path><path d="M872.3 165L865.3 0L637 149Z" fill="#001b35" stroke="#001b35"></path><path d="M1261 559L1281 395L1075.7 551Z" fill="#2d4cb5" stroke="#2d4cb5"></path><path d="M1513.3 520L1281 395L1261 559Z" fill="#003d8a" stroke="#003d8a"></path><path d="M876.3 1080L1093.7 1080L1035.7 932Z" fill="#2d4cb5" stroke="#2d4cb5"></path><path d="M226.3 530L390.7 537L249.3 370Z" fill="#17459f" stroke="#17459f"></path><path d="M390.7 537L233.3 689L427.7 743Z" fill="#715df2" stroke="#715df2"></path><path d="M249.3 370L390.7 537L436.7 357Z" fill="#002d5f" stroke="#002d5f"></path><path d="M251.3 200L249.3 370L436.7 357Z" fill="#5958de" stroke="#5958de"></path><path d="M199.3 890L397.7 1080L442.7 933Z" fill="#003d8a" stroke="#003d8a"></path><path d="M442.7 933L397.7 1080L611 1080Z" fill="#003574" stroke="#003574"></path><path d="M1281 395L1262 215L1053.7 321Z" fill="#5958de" stroke="#5958de"></path><path d="M1074.7 0L865.3 0L1052.7 151Z" fill="#003d8a" stroke="#003d8a"></path><path d="M1052.7 151L865.3 0L872.3 165Z" fill="#4252ca" stroke="#4252ca"></path><path d="M637 149L605 0L444.7 206Z" fill="#2d4cb5" stroke="#2d4cb5"></path><path d="M0 752L199.3 890L233.3 689Z" fill="#2d4cb5" stroke="#2d4cb5"></path><path d="M233.3 689L199.3 890L427.7 743Z" fill="#003574" stroke="#003574"></path><path d="M865.3 0L605 0L637 149Z" fill="#002d5f" stroke="#002d5f"></path><path d="M444.7 206L251.3 200L436.7 357Z" fill="#17459f" stroke="#17459f"></path><path d="M1093.7 1080L1285 1080L1252 902Z" fill="#2d4cb5" stroke="#2d4cb5"></path><path d="M1459.3 934L1485.3 734L1294 752Z" fill="#003d8a" stroke="#003d8a"></path><path d="M0 371L0 560L226.3 530Z" fill="#5958de" stroke="#5958de"></path><path d="M387.7 0L251.3 200L444.7 206Z" fill="#001b35" stroke="#001b35"></path><path d="M1258 0L1074.7 0L1052.7 151Z" fill="#001b35" stroke="#001b35"></path><path d="M1459.3 934L1294 752L1252 902Z" fill="#2d4cb5" stroke="#2d4cb5"></path><path d="M1294 752L1485.3 734L1261 559Z" fill="#003d8a" stroke="#003d8a"></path><path d="M1281 395L1491.3 324L1262 215Z" fill="#002d5f" stroke="#002d5f"></path><path d="M1485.3 734L1513.3 520L1261 559Z" fill="#003d8a" stroke="#003d8a"></path><path d="M199.3 890L211.3 1080L397.7 1080Z" fill="#002d5f" stroke="#002d5f"></path><path d="M1285 1080L1459.3 934L1252 902Z" fill="#00244a" stroke="#00244a"></path><path d="M1703.7 568L1669.7 394L1513.3 520Z" fill="#17459f" stroke="#17459f"></path><path d="M605 0L387.7 0L444.7 206Z" fill="#003d8a" stroke="#003d8a"></path><path d="M1513.3 520L1491.3 324L1281 395Z" fill="#001b35" stroke="#001b35"></path><path d="M1262 215L1258 0L1052.7 151Z" fill="#001b35" stroke="#001b35"></path><path d="M1504.3 208L1258 0L1262 215Z" fill="#002d5f" stroke="#002d5f"></path><path d="M0 371L249.3 370L251.3 200Z" fill="#5958de" stroke="#5958de"></path><path d="M0 371L226.3 530L249.3 370Z" fill="#4252ca" stroke="#4252ca"></path><path d="M226.3 530L0 560L233.3 689Z" fill="#715df2" stroke="#715df2"></path><path d="M199.3 890L0 939L211.3 1080Z" fill="#5958de" stroke="#5958de"></path><path d="M0 560L0 752L233.3 689Z" fill="#002d5f" stroke="#002d5f"></path><path d="M1669.7 394L1504.3 208L1491.3 324Z" fill="#17459f" stroke="#17459f"></path><path d="M1491.3 324L1504.3 208L1262 215Z" fill="#001b35" stroke="#001b35"></path><path d="M0 151L0 371L251.3 200Z" fill="#17459f" stroke="#17459f"></path><path d="M1285 1080L1499.3 1080L1459.3 934Z" fill="#003d8a" stroke="#003d8a"></path><path d="M1709.7 694L1513.3 520L1485.3 734Z" fill="#00244a" stroke="#00244a"></path><path d="M0 752L0 939L199.3 890Z" fill="#002d5f" stroke="#002d5f"></path><path d="M387.7 0L198.3 0L251.3 200Z" fill="#2d4cb5" stroke="#2d4cb5"></path><path d="M0 939L0 1080L211.3 1080Z" fill="#001b35" stroke="#001b35"></path><path d="M1703.7 568L1513.3 520L1709.7 694Z" fill="#2d4cb5" stroke="#2d4cb5"></path><path d="M1513.3 520L1669.7 394L1491.3 324Z" fill="#2d4cb5" stroke="#2d4cb5"></path><path d="M1709.7 694L1485.3 734L1726.7 871Z" fill="#003574" stroke="#003574"></path><path d="M198.3 0L0 151L251.3 200Z" fill="#17459f" stroke="#17459f"></path><path d="M1726.7 871L1485.3 734L1459.3 934Z" fill="#715df2" stroke="#715df2"></path><path d="M1703.7 0L1507.3 0L1504.3 208Z" fill="#2d4cb5" stroke="#2d4cb5"></path><path d="M1504.3 208L1507.3 0L1258 0Z" fill="#001122" stroke="#001122"></path><path d="M1499.3 1080L1726.7 871L1459.3 934Z" fill="#715df2" stroke="#715df2"></path><path d="M1920 512L1669.7 394L1703.7 568Z" fill="#4252ca" stroke="#4252ca"></path><path d="M198.3 0L0 0L0 151Z" fill="#17459f" stroke="#17459f"></path><path d="M1669.7 394L1726.7 191L1504.3 208Z" fill="#17459f" stroke="#17459f"></path><path d="M1920 358L1726.7 191L1669.7 394Z" fill="#003574" stroke="#003574"></path><path d="M1920 697L1703.7 568L1709.7 694Z" fill="#001122" stroke="#001122"></path><path d="M1499.3 1080L1737.7 1080L1726.7 871Z" fill="#003574" stroke="#003574"></path><path d="M1726.7 871L1920 697L1709.7 694Z" fill="#003574" stroke="#003574"></path><path d="M1726.7 191L1703.7 0L1504.3 208Z" fill="#003574" stroke="#003574"></path><path d="M1920 927L1920 697L1726.7 871Z" fill="#17459f" stroke="#17459f"></path><path d="M1726.7 191L1920 148L1703.7 0Z" fill="#001b35" stroke="#001b35"></path><path d="M1920 697L1920 512L1703.7 568Z" fill="#715df2" stroke="#715df2"></path><path d="M1920 512L1920 358L1669.7 394Z" fill="#003574" stroke="#003574"></path><path d="M1737.7 1080L1920 927L1726.7 871Z" fill="#002d5f" stroke="#002d5f"></path><path d="M1737.7 1080L1920 1080L1920 927Z" fill="#715df2" stroke="#715df2"></path><path d="M1920 358L1920 148L1726.7 191Z" fill="#4252ca" stroke="#4252ca"></path><path d="M1920 148L1920 0L1703.7 0Z" fill="#2d4cb5" stroke="#2d4cb5"></path></g></svg>