<svg width="88" height="89" viewBox="0 0 88 89" fill="none" xmlns="http://www.w3.org/2000/svg">
<g id="2069a460dcf28295e231f3111e037552">
<path id="Vector" d="M72.993 0.779419H14.5987C6.56938 0.779419 0 7.3488 0 15.3781V73.7726C0 81.8019 6.56938 88.3713 14.5987 88.3713H72.9932C81.0225 88.3713 87.5919 81.8019 87.5919 73.7726V15.3781C87.5917 7.3488 81.0223 0.779419 72.993 0.779419ZM41.9667 45.3507C38.9266 48.3909 34.1484 49.8186 28.7503 49.8186C27.3231 49.8186 26.0202 49.7561 25.0272 49.5699V65.3304H17.4578V24.068C20.1879 23.5718 23.973 23.1991 29.1224 23.1991C34.7074 23.1991 38.8026 24.3781 41.4708 26.6121C43.9529 28.66 45.5659 31.9484 45.5659 35.8574C45.5657 39.8287 44.3248 43.1169 41.9667 45.3507ZM57.8484 65.9514C54.1874 65.9514 50.899 65.0825 48.6652 63.8413L50.1542 58.3191C51.8915 59.374 55.1804 60.4911 57.9105 60.4911C61.2607 60.4911 62.7505 59.126 62.7505 57.1402C62.7505 55.093 61.5096 54.0378 57.7864 52.7349C51.8913 50.687 49.4101 47.4607 49.472 43.9237C49.472 38.5875 53.8773 34.4304 60.8888 34.4304C64.2397 34.4304 67.1559 35.2993 68.8929 36.2296L67.4038 41.6278C66.1007 40.8836 63.6806 39.8906 61.0127 39.8906C58.2824 39.8906 56.7934 41.1937 56.7934 43.0549C56.7934 44.9788 58.2206 45.9097 62.0677 47.2747C67.5279 49.26 70.072 52.0521 70.1341 56.5202C70.1339 61.9803 65.8529 65.9514 57.8484 65.9514ZM37.9336 36.1675C37.9336 41.0696 34.4585 43.8617 28.7503 43.8617C27.1992 43.8617 25.9582 43.7996 25.0272 43.5516V29.4043C25.8342 29.2183 27.3233 29.0321 29.4332 29.0321C34.7074 29.0321 37.9336 31.5142 37.9336 36.1675Z" fill="white"/>
</g>
</svg>
