<svg width="90" height="48" viewBox="0 0 90 48" fill="none" xmlns="http://www.w3.org/2000/svg">
<g id="&#240;&#159;&#166;&#134; icon &#34;PHP&#34;">
<path id="Vector" d="M44.767 2.35027C68.7453 2.35027 87.1837 12.4508 87.1837 23.5446C87.1837 34.6385 68.7313 44.739 44.767 44.739C20.7887 44.739 2.35027 34.6385 2.35027 23.5446C2.35027 12.4508 20.8027 2.35027 44.767 2.35027ZM44.767 0C20.0472 0 0 10.5342 0 23.5446C0 36.555 20.0472 47.0893 44.767 47.0893C69.4867 47.0893 89.534 36.555 89.534 23.5446C89.534 10.5342 69.4867 0 44.767 0ZM30.5255 21.656C29.4203 27.3218 25.5172 26.7343 20.7187 26.7343L22.6353 16.8576C27.9514 16.8576 31.5607 16.284 30.5255 21.656ZM13.6259 36.7369H18.7602L19.9773 30.4695C25.727 30.4695 29.2944 30.8892 32.596 27.7975C36.2473 24.44 37.1986 18.4664 34.5965 15.4726C33.2395 13.9057 31.0571 13.1363 28.0913 13.1363H18.2006L13.6259 36.7369ZM39.6048 6.85494H44.711L43.4939 13.1223C47.9007 13.1223 51.9857 12.8006 53.9582 14.6192C56.0287 16.5218 55.0354 18.956 52.7971 30.4415H47.6209C49.7753 19.3337 50.181 18.4104 49.3976 17.571C48.6421 16.7596 46.9214 16.9275 42.7665 16.9275L40.1364 30.4415H35.0302L39.6048 6.85494ZM70.6479 21.656C69.5287 27.4058 65.5137 26.7343 60.8411 26.7343L62.7577 16.8576C68.1018 16.8576 71.6831 16.284 70.6479 21.656ZM53.7484 36.7369H58.8966L60.1137 30.4695C66.1572 30.4695 69.5007 30.8193 72.7324 27.7975C76.3837 24.44 77.335 18.4664 74.7329 15.4726C73.3759 13.9057 71.1935 13.1363 68.2277 13.1363H58.337L53.7484 36.7369Z" fill="white"/>
</g>
</svg>
