<svg width="1920" height="941" viewBox="0 0 1920 941" fill="none" xmlns="http://www.w3.org/2000/svg">
<path d="M1920 809C1794.1 771.417 1668.3 733.833 1586.3 670.333C1504.3 606.917 1466.2 517.583 1365.6 461C1265.1 404.417 1102 380.5 1022 309C942 237.417 945 118.25 948 -1H1920V809Z" fill="#3F673F"/>
<path d="M0 89C106.2 138.25 212.3 187.417 338.7 217.667C465 247.833 611.5 259 687.3 326.25C763.1 393.5 768.1 516.75 803.8 621.583C839.4 726.333 843 843.5 717.5 913C592 982.5 0 899 0 899V89Z" fill="#3F673F"/>
</svg>
