<svg width="45" height="45" viewBox="0 0 45 45" fill="none" xmlns="http://www.w3.org/2000/svg">
<g id="&#240;&#159;&#166;&#134; icon &#34;Dove&#34;">
<path id="Vector" d="M25.3131 14.6906V12.221C22.8347 9.03067 21.1736 5.25149 20.5584 1.21744C20.3738 0.0309565 18.8885 -0.434849 18.1151 0.487973C16.2607 2.67638 14.8017 5.2427 13.8174 8.09027C16.8232 11.4564 20.8484 13.7678 25.3131 14.6906ZM35.1566 5.62062C31.2719 5.62062 28.1255 8.77579 28.1255 12.6604V17.881C18.9501 17.3361 11.1632 11.6849 7.64768 3.66951C7.1643 2.57091 5.60869 2.50939 5.09894 3.59041C3.64 6.67527 2.81385 10.1205 2.81385 13.759C2.81385 19.9815 5.81083 25.7909 10.2931 30.0974C11.4532 31.2135 12.587 32.1364 13.7119 32.9801L1.06489 36.1441C0.124486 36.3814 -0.297375 37.4712 0.229952 38.2885C1.7592 40.6527 5.53837 44.6604 13.6944 44.9944C14.3975 45.0207 15.1006 44.7659 15.6367 44.3L21.367 39.3695H28.1255C35.8948 39.3695 42.1876 33.0856 42.1876 25.3163V11.2454L45 5.62062H35.1566ZM35.1566 14.0666C34.3832 14.0666 33.7504 13.4338 33.7504 12.6604C33.7504 11.887 34.3832 11.2542 35.1566 11.2542C35.93 11.2542 36.5628 11.887 36.5628 12.6604C36.5628 13.4338 35.93 14.0666 35.1566 14.0666Z" fill="white"/>
</g>
</svg>
