<svg width="70" height="70" viewBox="0 0 70 70" fill="none" xmlns="http://www.w3.org/2000/svg">
<g id="&#240;&#159;&#166;&#134; icon &#34;GitHub Square&#34;">
<path id="Vector" d="M62.2834 0H7.88543C3.79013 0 0.467529 3.3226 0.467529 7.4179V61.8158C0.467529 65.9111 3.79013 69.2337 7.88543 69.2337H62.2834C66.3787 69.2337 69.7013 65.9111 69.7013 61.8158V7.4179C69.7013 3.3226 66.3787 0 62.2834 0ZM43.3214 59.2969C42.0232 59.5287 41.5442 58.7251 41.5442 58.0605C41.5442 57.226 41.5751 52.9607 41.5751 49.5145C41.5751 47.1037 40.7715 45.5737 39.8288 44.7701C45.5467 44.1365 51.5738 43.3484 51.5738 33.4733C51.5738 30.6607 50.5693 29.2544 48.9312 27.4462C49.1939 26.7817 50.0747 24.0464 48.6684 20.492C46.5203 19.8274 41.606 23.2582 41.606 23.2582C39.5661 22.6864 37.3561 22.3928 35.1771 22.3928C32.9981 22.3928 30.7882 22.6864 28.7483 23.2582C28.7483 23.2582 23.8339 19.8274 21.6858 20.492C20.2795 24.0309 21.1449 26.7663 21.4231 27.4462C19.785 29.2544 19.0123 30.6607 19.0123 33.4733C19.0123 43.302 24.7766 44.1365 30.4946 44.7701C29.7528 45.4347 29.0883 46.5782 28.8565 48.2164C27.3883 48.8809 23.633 50.0245 21.3922 46.0683C19.9859 43.6265 17.4514 43.4256 17.4514 43.4256C14.9479 43.3947 17.2814 45.0019 17.2814 45.0019C18.9505 45.7746 20.125 48.7418 20.125 48.7418C21.624 53.3316 28.7946 51.7862 28.7946 51.7862C28.7946 53.9343 28.8255 57.4269 28.8255 58.0605C28.8255 58.7251 28.3619 59.5287 27.0483 59.2969C16.8487 55.8815 9.709 46.1764 9.709 34.8332C9.709 20.6465 20.5577 9.87508 34.7444 9.87508C48.9312 9.87508 60.4289 20.6465 60.4289 34.8332C60.4444 46.1764 53.521 55.897 43.3214 59.2969ZM28.161 49.8545C27.8674 49.9163 27.5892 49.7927 27.5583 49.5918C27.5274 49.36 27.7283 49.1591 28.0219 49.0972C28.3156 49.0663 28.5937 49.19 28.6246 49.3909C28.671 49.5918 28.4701 49.7927 28.161 49.8545ZM26.6929 49.7154C26.6929 49.9163 26.4611 50.0863 26.152 50.0863C25.812 50.1172 25.5802 49.9472 25.5802 49.7154C25.5802 49.5145 25.812 49.3445 26.1211 49.3445C26.4147 49.3136 26.6929 49.4836 26.6929 49.7154ZM24.5757 49.5454C24.5139 49.7463 24.2048 49.839 23.9421 49.7463C23.6485 49.6845 23.4476 49.4527 23.5094 49.2518C23.5712 49.0509 23.8803 48.9582 24.143 49.02C24.4521 49.1127 24.653 49.3445 24.5757 49.5454ZM22.6749 48.7109C22.5358 48.8809 22.2422 48.85 22.0104 48.6182C21.7785 48.4173 21.7167 48.1236 21.8713 47.9846C22.0104 47.8146 22.304 47.8455 22.5358 48.0773C22.7367 48.2782 22.814 48.5873 22.6749 48.7109ZM21.2686 47.3046C21.1295 47.3973 20.8668 47.3046 20.6968 47.0728C20.5268 46.841 20.5268 46.5782 20.6968 46.4701C20.8668 46.331 21.1295 46.4392 21.2686 46.671C21.4386 46.9028 21.4386 47.1809 21.2686 47.3046ZM20.2641 45.8055C20.125 45.9446 19.8932 45.8674 19.7232 45.7128C19.5532 45.5119 19.5223 45.2801 19.6613 45.1719C19.8004 45.0328 20.0322 45.1101 20.2022 45.2647C20.3722 45.4656 20.4031 45.6974 20.2641 45.8055ZM19.2286 44.6619C19.1668 44.801 18.9659 44.8319 18.7959 44.7238C18.595 44.631 18.5023 44.461 18.5641 44.322C18.6259 44.2292 18.7959 44.1829 18.9968 44.2601C19.1977 44.3683 19.2905 44.5383 19.2286 44.6619Z" fill="white"/>
</g>
</svg>
