<svg width="70" height="70" viewBox="0 0 70 70" fill="none" xmlns="http://www.w3.org/2000/svg">
<g id="&#240;&#159;&#166;&#134; icon &#34;Instagram&#34;">
<path id="Vector" d="M34.6246 16.8625C24.8014 16.8625 16.8779 24.7859 16.8779 34.6091C16.8779 44.4324 24.8014 52.3558 34.6246 52.3558C44.4478 52.3558 52.3713 44.4324 52.3713 34.6091C52.3713 24.7859 44.4478 16.8625 34.6246 16.8625ZM34.6246 46.1468C28.2766 46.1468 23.0869 40.9726 23.0869 34.6091C23.0869 28.2457 28.2611 23.0715 34.6246 23.0715C40.9881 23.0715 46.1623 28.2457 46.1623 34.6091C46.1623 40.9726 40.9726 46.1468 34.6246 46.1468ZM57.2366 16.1365C57.2366 18.4379 55.3831 20.2759 53.0972 20.2759C50.7959 20.2759 48.9579 18.4224 48.9579 16.1365C48.9579 13.8506 50.8113 11.9972 53.0972 11.9972C55.3831 11.9972 57.2366 13.8506 57.2366 16.1365ZM68.9905 20.3377C68.7279 14.7928 67.4614 9.88116 63.3993 5.83448C59.3526 1.7878 54.441 0.52128 48.8961 0.243264C43.1813 -0.081088 26.0524 -0.081088 20.3377 0.243264C14.8082 0.505835 9.8966 1.77235 5.83448 5.81903C1.77235 9.86571 0.52128 14.7773 0.243264 20.3222C-0.081088 26.037 -0.081088 43.1659 0.243264 48.8806C0.505835 54.4255 1.77235 59.3371 5.83448 63.3838C9.8966 67.4305 14.7928 68.697 20.3377 68.975C26.0524 69.2994 43.1813 69.2994 48.8961 68.975C54.441 68.7125 59.3526 67.446 63.3993 63.3838C67.446 59.3371 68.7125 54.4255 68.9905 48.8806C69.3148 43.1659 69.3148 26.0524 68.9905 20.3377ZM61.6076 55.0124C60.4029 58.0397 58.0706 60.372 55.0279 61.5922C50.4715 63.3993 39.6598 62.9822 34.6246 62.9822C29.5894 62.9822 18.7622 63.3838 14.2213 61.5922C11.194 60.3874 8.86177 58.0552 7.64158 55.0124C5.83448 50.4561 6.2515 39.6443 6.2515 34.6091C6.2515 29.574 5.84992 18.7468 7.64158 14.2059C8.84632 11.1786 11.1786 8.84632 14.2213 7.62614C18.7777 5.81903 29.5894 6.23606 34.6246 6.23606C39.6598 6.23606 50.487 5.83448 55.0279 7.62614C58.0552 8.83087 60.3874 11.1631 61.6076 14.2059C63.4147 18.7622 62.9977 29.574 62.9977 34.6091C62.9977 39.6443 63.4147 50.4715 61.6076 55.0124Z" fill="white"/>
</g>
</svg>
