<svg width="70" height="70" viewBox="0 0 70 70" fill="none" xmlns="http://www.w3.org/2000/svg">
<g id="&#240;&#159;&#166;&#134; icon &#34;LinkedIn&#34;">
<path id="Vector" d="M64.5222 0.229492H5.16358C2.44368 0.229492 0.233765 2.47032 0.233765 5.22112V64.4716C0.233765 67.2224 2.44368 69.4632 5.16358 69.4632H64.5222C67.2421 69.4632 69.4675 67.2224 69.4675 64.4716V5.22112C69.4675 2.47032 67.2421 0.229492 64.5222 0.229492ZM21.1584 59.5727H10.897V26.5321H21.1739V59.5727H21.1584ZM16.0277 22.0196C12.736 22.0196 10.0779 19.346 10.0779 16.0698C10.0779 12.7936 12.736 10.12 16.0277 10.12C19.304 10.12 21.9775 12.7936 21.9775 16.0698C21.9775 19.3615 19.3194 22.0196 16.0277 22.0196ZM59.6233 59.5727H49.3619V43.5006C49.3619 39.668 49.2846 34.7382 44.0303 34.7382C38.6832 34.7382 37.8642 38.9108 37.8642 43.2224V59.5727H27.6027V26.5321H37.4469V31.0447H37.586C38.9614 28.4484 42.3149 25.7131 47.3065 25.7131C57.6916 25.7131 59.6233 32.5592 59.6233 41.4607V59.5727Z" fill="white"/>
</g>
</svg>
