<svg width="46" height="34" viewBox="0 0 46 34" fill="none" xmlns="http://www.w3.org/2000/svg">
<g id="&#240;&#159;&#166;&#134; icon &#34;Envelope&#34;">
<path id="Vector" d="M44.4745 11.2271C44.8198 10.9526 45.3333 11.2094 45.3333 11.6432V29.75C45.3333 32.0964 43.4297 34 41.0833 34H4.25C1.90365 34 0 32.0964 0 29.75V11.6521C0 11.2094 0.504687 10.9615 0.858854 11.2359C2.84219 12.7766 5.47188 14.7333 14.5031 21.2943C16.3714 22.6578 19.5234 25.5266 22.6667 25.5089C25.8276 25.5354 29.0417 22.6047 30.8391 21.2943C39.8703 14.7333 42.4911 12.7677 44.4745 11.2271ZM22.6667 22.6667C24.7208 22.7021 27.6781 20.0812 29.1656 19.001C40.9151 10.4745 41.8094 9.73073 44.5187 7.60573C45.0323 7.20729 45.3333 6.5875 45.3333 5.93229V4.25C45.3333 1.90365 43.4297 0 41.0833 0H4.25C1.90365 0 0 1.90365 0 4.25V5.93229C0 6.5875 0.301042 7.19844 0.814583 7.60573C3.52396 9.72187 4.41823 10.4745 16.1677 19.001C17.6552 20.0812 20.6125 22.7021 22.6667 22.6667Z" fill="white"/>
</g>
</svg>
