<svg width="694" height="589" viewBox="0 0 694 589" fill="none" xmlns="http://www.w3.org/2000/svg">
<path d="M125.018 0.861857L51.9376 89.8244L250.298 89.8244L323.379 0.861855L125.018 0.861857Z" fill="white"/>
<path d="M260.738 105.711L333.819 16.748L333.819 499.687L260.738 588.65L260.738 105.711Z" fill="white"/>
<path d="M234.114 312.231L234.114 438.043L51.9378 215.636L51.9378 89.8244L234.114 312.231Z" fill="white"/>
<path d="M354.699 496.51L427.78 585.473V102.533L354.699 13.5708V496.51Z" fill="white"/>
<path d="M443.44 89.8243L370.359 0.861804L581.769 0.861813L654.85 89.8243L443.44 89.8243Z" fill="white"/>
<path d="M451.27 305.876L451.27 216.914L526.959 216.914L600.04 305.877L451.27 305.876Z" fill="white"/>
<path d="M451.27 585.472L451.27 496.51L620.92 496.51L694 585.473L451.27 585.472Z" fill="white"/>
</svg>
