<svg width="58" height="40" viewBox="0 0 58 40" fill="none" xmlns="http://www.w3.org/2000/svg">
<path d="M10.3566 -7.43344e-06L4.30259 6.05405L20.735 6.05405L26.7891 -7.62939e-06L10.3566 -7.43344e-06Z" fill="#001122"/>
<path d="M21.5999 7.13514L27.6539 1.08108L27.6539 33.9459L21.5999 40L21.5999 7.13514Z" fill="#001122"/>
<path d="M19.3943 21.1892L19.3943 29.7509L4.30259 14.6158L4.30259 6.05406L19.3943 21.1892Z" fill="#001122"/>
<path d="M29.3837 33.7297L35.4378 39.7838V6.91892L29.3837 0.864868V33.7297Z" fill="#001122"/>
<path d="M36.7351 6.05405L30.681 -1.03017e-06L48.1945 -2.64631e-07L54.2485 6.05405L36.7351 6.05405Z" fill="#001122"/>
<path d="M37.3837 20.7568L37.3837 14.7027L43.654 14.7027L49.708 20.7568L37.3837 20.7568Z" fill="#001122"/>
<path d="M37.3837 39.7838L37.3837 33.7297L51.4377 33.7297L57.4918 39.7838L37.3837 39.7838Z" fill="#001122"/>
</svg>
